# xmcd
#
# Track frame offsets:
#	150
#	16165
#	30593
#	46408
#	59264
#	74543
#	91965
#	105822
#	121511
#	134829
#	153664
#
# Disc length: 2320 seconds
#
# Revision: 0
# Processed by: cddbd v1.5.2PL0 Copyright (c) Steve Scherf et al.
# Submitted via: dBpowerAMP V4.0
#
DISCID=89090e0b
DTITLE=tormento - il mio diario
DYEAR=1900
DGENRE=
TTITLE0=Selvaggi
TTITLE1=L'ho fatto per te
TTITLE2=Mi piaci
TTITLE3=Sentimi
TTITLE4=Buio
TTITLE5=Il resto è inutile
TTITLE6=Liberi e legati
TTITLE7=Volo
TTITLE8=Most wanted pt.2
TTITLE9=No xè pensieri
TTITLE10=Dalla a  me
EXTD=tormento il mio diario
EXTT0=
EXTT1=
EXTT2=
EXTT3=
EXTT4=
EXTT5=
EXTT6=
EXTT7=
EXTT8=
EXTT9=
EXTT10=
PLAYORDER=
